<svg width="30" height="30" viewBox="0 0 30 30" fill="none" xmlns="http://www.w3.org/2000/svg">
<path opacity="0.4" d="M20.2375 2.5L9.7625 2.5C5.2125 2.5 2.5 5.2125 2.5 9.7625L2.5 20.225C2.5 24.7875 5.2125 27.5 9.7625 27.5L20.225 27.5C24.775 27.5 27.4875 24.7875 27.4875 20.2375L27.4875 9.7625C27.5 5.2125 24.7875 2.5 20.2375 2.5Z" fill="#B88B1A"/>
<path d="M13.4246 20.3492C13.1871 20.3492 12.9496 20.2617 12.7621 20.0742C12.3996 19.7117 12.3996 19.1117 12.7621 18.7492L16.5121 14.9992L12.7621 11.2492C12.3996 10.8867 12.3996 10.2867 12.7621 9.92422C13.1246 9.56172 13.7246 9.56172 14.0871 9.92422L18.4996 14.3367C18.8621 14.6992 18.8621 15.2992 18.4996 15.6617L14.0871 20.0742C13.8996 20.2617 13.6621 20.3492 13.4246 20.3492Z" fill="#B88B1A"/>
</svg>
