<svg width="24" height="24" viewBox="0 0 24 24" fill="none" xmlns="http://www.w3.org/2000/svg">
<path d="M3.11304 19.2786L3.11301 19.2784L1.78301 11.3184L1.78282 11.3173C1.69568 10.8028 1.77432 10.1863 1.99723 9.59972C2.22013 9.01322 2.57102 8.49938 2.98172 8.17166L2.9824 8.17111L9.91241 2.62106L9.91362 2.62009C11.0679 1.68979 12.9175 1.69523 14.0875 2.63124L14.0876 2.63135L21.0161 8.17011C21.0163 8.17032 21.0166 8.17053 21.0168 8.17074C21.4229 8.4984 21.7718 9.01241 21.995 9.59972C22.2181 10.1867 22.2993 10.804 22.2165 11.3197C22.2164 11.3202 22.2163 11.3207 22.2162 11.3212L20.8869 19.2772C20.8868 19.2775 20.8868 19.2778 20.8867 19.2781C20.627 20.8081 19.1448 22.0608 17.5999 22.0608H6.39985C4.82348 22.0608 3.37273 20.8367 3.11304 19.2786ZM10.2287 3.01937L10.2273 3.02052L3.29729 8.57056L3.29584 8.57174C2.92293 8.87268 2.63915 9.32644 2.46402 9.78489C2.28896 10.2432 2.19791 10.7705 2.27666 11.243L2.27669 11.2432L3.60669 19.2032L3.60705 19.2053C3.82806 20.4945 5.08547 21.5608 6.39985 21.5608H17.5999C18.9154 21.5608 20.1722 20.4933 20.3928 19.1945L20.393 19.1932L21.723 11.2332L21.723 11.233C21.8021 10.7589 21.7075 10.2284 21.5316 9.77038C21.3559 9.3125 21.0723 8.85781 20.703 8.56107L20.7021 8.56028L13.7721 3.02024L13.7721 3.0202L13.7661 3.01558C13.2653 2.62745 12.6229 2.44082 11.9899 2.44082C11.3673 2.44082 10.7219 2.62734 10.2287 3.01937Z" stroke="black"/>
<path opacity="0.4" d="M12 15.75C10.4861 15.75 9.25 14.5139 9.25 13C9.25 11.4861 10.4861 10.25 12 10.25C13.5139 10.25 14.75 11.4861 14.75 13C14.75 14.5139 13.5139 15.75 12 15.75ZM12 10.75C10.7639 10.75 9.75 11.7639 9.75 13C9.75 14.2361 10.7639 15.25 12 15.25C13.2361 15.25 14.25 14.2361 14.25 13C14.25 11.7639 13.2361 10.75 12 10.75Z" stroke="black"/>
</svg>
